<svg width="296" height="266" xmlns="http://www.w3.org/2000/svg" xmlns:xlink="http://www.w3.org/1999/xlink" overflow="hidden"><defs><clipPath id="clip0"><rect x="862" y="201" width="296" height="266"/></clipPath></defs><g clip-path="url(#clip0)" transform="translate(-862 -201)"><path d="M1148.04 415.891C1143.88 411.289 1045.95 303.434 1010.5 303.434 975.058 303.434 877.123 411.289 872.97 415.885L872.965 415.891C872.559 416.343 863 427.245 863 439.957 863 449.852 863.656 459.811 863.667 459.907 863.688 460.365 863.918 464.572 866.261 465.718 866.64 465.904 867.051 466 867.473 466 868.343 466 869.314 465.611 870.366 464.844 871.422 463.912 971.188 375.991 1010.5 375.991 1049.82 375.991 1149.59 463.912 1150.59 464.802 1151.67 465.601 1152.66 466 1153.54 466 1153.96 466 1154.36 465.904 1154.75 465.723 1157.09 464.583 1157.32 460.371 1157.34 459.897 1157.34 459.822 1158 449.863 1158 439.968 1158 427.245 1148.44 416.343 1148.04 415.891M1147.9 313.345C1143.74 308.749 1045.92 201 1010.5 201 975.096 201 877.257 308.749 873.109 313.34L873.104 313.345C872.698 313.797 863.144 324.688 863.144 337.39 863.144 347.275 863.806 357.223 863.811 357.319 863.832 357.777 864.062 361.979 866.4 363.124 866.779 363.31 867.19 363.401 867.612 363.401 868.482 363.401 869.448 363.012 870.499 362.245 871.562 361.313 971.226 273.482 1010.5 273.482 1049.78 273.482 1149.45 361.313 1150.45 362.203 1151.53 363.001 1152.51 363.396 1153.39 363.396 1153.82 363.396 1154.22 363.305 1154.61 363.118 1156.94 361.979 1157.17 357.771 1157.19 357.297 1157.19 357.223 1157.85 347.275 1157.85 337.39 1157.86 324.688 1148.31 313.797 1147.9 313.345" fill-rule="evenodd"/></g></svg>