<?xml version="1.0" encoding="UTF-8" standalone="no"?>
<!-- Created with Inkscape (http://www.inkscape.org/) -->

<svg
   width="500"
   height="128.95876"
   viewBox="0 0 132.29166 34.120337"
   version="1.1"
   id="svg1"
   inkscape:version="1.4 (86a8ad7, 2024-10-11)"
   sodipodi:docname="Dongfeng_Motor_logo.svg"
   xmlns:inkscape="http://www.inkscape.org/namespaces/inkscape"
   xmlns:sodipodi="http://sodipodi.sourceforge.net/DTD/sodipodi-0.dtd"
   xmlns="http://www.w3.org/2000/svg"
   xmlns:svg="http://www.w3.org/2000/svg">
  <sodipodi:namedview
     id="namedview1"
     pagecolor="#ffffff"
     bordercolor="#000000"
     borderopacity="0.25"
     inkscape:showpageshadow="2"
     inkscape:pageopacity="0.0"
     inkscape:pagecheckerboard="0"
     inkscape:deskcolor="#d1d1d1"
     inkscape:document-units="mm"
     inkscape:zoom="2.8685466"
     inkscape:cx="164.89187"
     inkscape:cy="86.280628"
     inkscape:window-width="1920"
     inkscape:window-height="1001"
     inkscape:window-x="-9"
     inkscape:window-y="-9"
     inkscape:window-maximized="1"
     inkscape:current-layer="layer1" />
  <defs
     id="defs1">
    <clipPath
       id="clipPath60">
      <path
         transform="translate(-357.1,-637.62)"
         d="M 0,841 H 595 V 0 H 0 Z"
         id="path27" />
    </clipPath>
    <clipPath
       id="clipPath58">
      <path
         transform="translate(-372.25,-635.98)"
         d="M 0,841 H 595 V 0 H 0 Z"
         id="path26" />
    </clipPath>
    <clipPath
       id="clipPath56">
      <path
         transform="translate(-363.91,-647.86)"
         d="M 0,841 H 595 V 0 H 0 Z"
         id="path25" />
    </clipPath>
    <clipPath
       id="clipPath54">
      <path
         transform="translate(0,-2.5e-5)"
         d="M 0,841 H 595 V 0 H 0 Z"
         id="path24" />
    </clipPath>
    <clipPath
       id="clipPath52">
      <path
         transform="translate(-351.57,-628.48)"
         d="M 0,841 H 595 V 0 H 0 Z"
         id="path23" />
    </clipPath>
    <clipPath
       id="clipPath50">
      <path
         transform="translate(-357.1,-643.01)"
         d="M 0,841 H 595 V 0 H 0 Z"
         id="path22" />
    </clipPath>
    <clipPath
       id="clipPath48">
      <path
         transform="translate(-388.01,-647.86)"
         d="M 0,841 H 595 V 0 H 0 Z"
         id="path21" />
    </clipPath>
    <clipPath
       id="clipPath46">
      <path
         transform="translate(-300.69,-628.48)"
         d="M 0,841 H 595 V 0 H 0 Z"
         id="path20" />
    </clipPath>
    <clipPath
       id="clipPath44">
      <path
         transform="translate(-316.11,-635.28)"
         d="M 0,841 H 595 V 0 H 0 Z"
         id="path19" />
    </clipPath>
    <clipPath
       id="clipPath42">
      <path
         transform="translate(-322.48,-639.07)"
         d="M 0,841 H 595 V 0 H 0 Z"
         id="path18" />
    </clipPath>
    <clipPath
       id="clipPath40">
      <path
         transform="translate(-347.2,-631.48)"
         d="M 0,841 H 595 V 0 H 0 Z"
         id="path17" />
    </clipPath>
    <clipPath
       id="clipPath38">
      <path
         transform="translate(-397.88,-621.12)"
         d="M 0,841 H 595 V 0 H 0 Z"
         id="path16" />
    </clipPath>
    <clipPath
       id="clipPath36">
      <path
         transform="translate(-388.98,-624.56)"
         d="M 0,841 H 595 V 0 H 0 Z"
         id="path15" />
    </clipPath>
    <clipPath
       id="clipPath34">
      <path
         transform="translate(-379.51,-623.28)"
         d="M 0,841 H 595 V 0 H 0 Z"
         id="path14" />
    </clipPath>
    <clipPath
       id="clipPath32">
      <path
         transform="translate(-375.4,-624.56)"
         d="M 0,841 H 595 V 0 H 0 Z"
         id="path13" />
    </clipPath>
    <clipPath
       id="clipPath30">
      <path
         transform="translate(-366.55,-620.16)"
         d="M 0,841 H 595 V 0 H 0 Z"
         id="path12" />
    </clipPath>
    <clipPath
       id="clipPath28">
      <path
         transform="translate(-354.55,-620.7)"
         d="M 0,841 H 595 V 0 H 0 Z"
         id="path11" />
    </clipPath>
    <clipPath
       id="clipPath26">
      <path
         transform="translate(-348.1,-620.38)"
         d="M 0,841 H 595 V 0 H 0 Z"
         id="path10" />
    </clipPath>
    <clipPath
       id="clipPath24">
      <path
         transform="translate(-338.97,-620.85)"
         d="M 0,841 H 595 V 0 H 0 Z"
         id="path9" />
    </clipPath>
    <clipPath
       id="clipPath22">
      <path
         transform="translate(-331.84,-618.17)"
         d="M 0,841 H 595 V 0 H 0 Z"
         id="path8" />
    </clipPath>
    <clipPath
       id="clipPath20">
      <path
         transform="translate(-327.38,-620.7)"
         d="M 0,841 H 595 V 0 H 0 Z"
         id="path7" />
    </clipPath>
    <clipPath
       id="clipPath18">
      <path
         transform="translate(-320.93,-620.38)"
         d="M 0,841 H 595 V 0 H 0 Z"
         id="path6" />
    </clipPath>
    <clipPath
       id="clipPath16">
      <path
         transform="translate(-311.47,-624.56)"
         d="M 0,841 H 595 V 0 H 0 Z"
         id="path5" />
    </clipPath>
    <clipPath
       id="clipPath14">
      <path
         transform="translate(-305.48,-623.98)"
         d="M 0,841 H 595 V 0 H 0 Z"
         id="path4" />
    </clipPath>
    <clipPath
       id="clipPath6">
      <path
         transform="translate(-258.72,-633.63)"
         d="M 0,841 H 595 V 0 H 0 Z"
         id="path3" />
    </clipPath>
    <clipPath
       id="clipPath4">
      <path
         transform="translate(-274.93,-644.72)"
         d="M 0,841 H 595 V 0 H 0 Z"
         id="path2" />
    </clipPath>
    <clipPath
       id="clipPath2">
      <path
         transform="translate(-274.93,-622.57)"
         d="M 0,841 H 595 V 0 H 0 Z"
         id="path1" />
    </clipPath>
  </defs>
  <g
     inkscape:label="Layer 1"
     inkscape:groupmode="layer"
     id="layer1"
     transform="translate(-39.09098,-131.40091)">
    <path
       transform="matrix(0.92962878,0,0,-0.92962878,55.95475,158.73766)"
       d="m 0,0 c 8.292,0 14.948,6.699 14.948,14.949 0,1.09 -0.083,2.218 -0.334,3.224 -0.796,-2.845 -2.388,-5.4 -4.566,-7.328 v 0.209 c 0,8.209 -6.656,14.867 -14.822,14.867 -0.711,0 -1.382,-0.043 -2.009,-0.125 C -0.125,24.204 4.815,18.216 4.815,11.054 4.815,6.699 2.972,2.764 0,0"
       clip-path="url(#clipPath2)"
       style="fill:#e60021;fill-rule:evenodd;stroke-width:10.0269"
       id="path28" />
    <path
       transform="matrix(0.92962878,0,0,-0.92962878,55.95475,138.14492)"
       d="m 0,0 c -8.249,0 -14.95,-6.699 -14.95,-14.99 0,-1.088 0.127,-2.179 0.377,-3.224 0.755,2.888 2.387,5.4 4.523,7.369 v -0.252 c 0,-8.207 6.657,-14.863 14.865,-14.863 0.67,0 1.34,0.039 2.009,0.123 -6.658,1.592 -11.64,7.58 -11.64,14.74 0,4.355 1.884,8.334 4.816,11.097"
       clip-path="url(#clipPath4)"
       style="fill:#e60021;fill-rule:evenodd;stroke-width:10.0269"
       id="path29" />
    <path
       transform="matrix(0.92962878,0,0,-0.92962878,40.890173,148.46108)"
       d="m 0,0 c 0,8.963 7.243,16.247 16.205,16.247 8.96,0 16.204,-7.284 16.204,-16.247 0,-8.92 -7.244,-16.205 -16.204,-16.205 C 7.243,-16.205 0,-8.92 0,0 m -2.22,0 c 0,-10.175 8.249,-18.425 18.425,-18.425 10.174,0 18.424,8.25 18.424,18.425 0,10.177 -8.25,18.425 -18.424,18.425 C 6.029,18.425 -2.22,10.177 -2.22,0"
       clip-path="url(#clipPath6)"
       style="fill:#e60021;fill-rule:evenodd;stroke-width:10.0269"
       id="path30" />
    <path
       transform="matrix(0.92962878,0,0,-0.92962878,84.361862,157.42911)"
       d="m 0,0 c -0.283,0.151 -0.648,0.266 -1.086,0.338 -0.432,0.072 -0.96,0.109 -1.565,0.109 h -2.144 v -6.258 h 2.034 c 0.63,0 1.173,0.038 1.615,0.113 0.449,0.078 0.827,0.2 1.124,0.362 0.532,0.281 0.938,0.647 1.206,1.092 0.267,0.445 0.403,0.974 0.403,1.572 0,0.598 -0.134,1.127 -0.398,1.573 C 0.926,-0.653 0.525,-0.284 0,0 m -0.087,-2.655 c 0,-0.64 -0.201,-1.123 -0.616,-1.476 -0.415,-0.352 -1.007,-0.53 -1.763,-0.53 h -0.7 v 3.991 h 0.66 c 0.786,0 1.394,-0.172 1.807,-0.512 0.406,-0.335 0.612,-0.83 0.612,-1.473"
       clip-path="url(#clipPath14)"
       style="fill:#231916;fill-rule:evenodd;stroke-width:10.0269"
       id="path31" />
    <path
       transform="matrix(0.92962878,0,0,-0.92962878,89.930927,156.89134)"
       d="m 0,0 c -1.067,0 -1.92,-0.293 -2.536,-0.867 -0.619,-0.577 -0.932,-1.382 -0.932,-2.392 0,-1.007 0.312,-1.81 0.93,-2.388 0.614,-0.574 1.468,-0.866 2.538,-0.866 1.073,0 1.929,0.292 2.546,0.866 0.618,0.578 0.932,1.381 0.932,2.388 0,1.004 -0.315,1.808 -0.937,2.388 C 1.921,-0.293 1.067,0 0,0 m -1.319,-1.689 c 0.336,0.385 0.767,0.572 1.319,0.572 0.554,0 0.988,-0.187 1.327,-0.574 0.336,-0.385 0.507,-0.907 0.507,-1.55 0,-0.648 -0.171,-1.173 -0.507,-1.561 C 0.988,-5.191 0.554,-5.38 0,-5.38 c -0.554,0 -0.987,0.188 -1.321,0.576 -0.334,0.386 -0.503,0.912 -0.503,1.563 0,0.646 0.169,1.169 0.505,1.552"
       clip-path="url(#clipPath16)"
       style="fill:#231916;fill-rule:evenodd;stroke-width:10.0269"
       id="path32" />
    <path
       transform="matrix(0.92962878,0,0,-0.92962878,98.716882,160.77002)"
       d="m 0,0 c 0,-0.134 0.009,-0.291 0.027,-0.468 -0.043,0.091 -0.085,0.169 -0.124,0.236 l -2.64,4.272 h -1.931 v -6.258 h 1.49 V 1.81 c 0,0.099 -0.014,0.257 -0.042,0.484 0.029,-0.053 0.056,-0.1 0.083,-0.143 l 2.722,-4.369 H 1.489 V 4.04 H 0 Z"
       clip-path="url(#clipPath18)"
       style="fill:#231916;fill-rule:evenodd;stroke-width:10.0269"
       id="path33" />
    <path
       transform="matrix(0.92962878,0,0,-0.92962878,104.71553,160.47712)"
       d="M 0,0 H 1.314 L 1.31,-1.348 1.229,-1.37 c -0.322,-0.09 -0.567,-0.136 -0.73,-0.136 -0.736,0 -1.338,0.196 -1.792,0.582 -0.455,0.386 -0.676,0.872 -0.676,1.484 0,0.642 0.231,1.151 0.709,1.559 0.475,0.407 1.103,0.613 1.864,0.613 0.384,0 0.932,-0.106 1.63,-0.314 L 2.513,2.335 2.693,3.512 2.589,3.532 C 2.456,3.557 2.259,3.597 1.996,3.651 1.349,3.787 0.864,3.856 0.555,3.856 -0.73,3.856 -1.759,3.562 -2.501,2.981 -3.252,2.394 -3.633,1.584 -3.633,0.573 c 0,-0.995 0.373,-1.791 1.109,-2.368 0.728,-0.571 1.732,-0.861 2.984,-0.861 0.317,0 0.655,0.03 1.002,0.086 0.345,0.057 0.786,0.162 1.311,0.309 l 0.08,0.023 V 1.073 H 0 Z"
       clip-path="url(#clipPath20)"
       style="fill:#231916;fill-rule:evenodd;stroke-width:10.0269"
       id="path34" />
    <path
       transform="matrix(0.92962878,0,0,-0.92962878,108.86522,162.8314)"
       d="M 0,0 H 1.629 V 2.627 H 4.232 V 3.733 H 1.629 V 5.159 H 4.352 V 6.258 H 0 Z"
       clip-path="url(#clipPath22)"
       style="fill:#231916;fill-rule:evenodd;stroke-width:10.0269"
       id="path35" />
    <path
       transform="matrix(0.92962878,0,0,-0.92962878,115.49057,160.33885)"
       d="M 0,0 H 2.783 V 1.108 H 0 V 2.49 h 2.938 v 1.087 h -4.557 v -6.258 h 4.663 v 1.133 H 0 Z"
       clip-path="url(#clipPath24)"
       style="fill:#231916;fill-rule:evenodd;stroke-width:10.0269"
       id="path36" />
    <path
       transform="matrix(0.92962878,0,0,-0.92962878,123.9736,160.77002)"
       d="m 0,0 c 0,-0.134 0.009,-0.291 0.026,-0.468 -0.043,0.091 -0.084,0.169 -0.123,0.236 L -2.738,4.04 h -1.93 v -6.258 h 1.489 V 1.81 c 0,0.099 -0.013,0.257 -0.041,0.484 0.029,-0.053 0.056,-0.1 0.083,-0.143 l 2.721,-4.369 H 1.489 V 4.04 H 0 Z"
       clip-path="url(#clipPath26)"
       style="fill:#231916;fill-rule:evenodd;stroke-width:10.0269"
       id="path37" />
    <path
       transform="matrix(0.92962878,0,0,-0.92962878,129.97409,160.47712)"
       d="M 0,0 H 1.314 L 1.309,-1.348 1.229,-1.37 C 0.907,-1.46 0.662,-1.506 0.5,-1.506 c -0.737,0 -1.34,0.196 -1.794,0.582 -0.454,0.386 -0.675,0.872 -0.675,1.484 0,0.641 0.231,1.151 0.708,1.559 0.476,0.407 1.103,0.613 1.865,0.613 0.384,0 0.932,-0.106 1.629,-0.314 l 0.28,-0.083 0.18,1.177 -0.104,0.02 C 2.456,3.557 2.259,3.597 1.997,3.651 1.349,3.787 0.863,3.856 0.554,3.856 -0.73,3.856 -1.759,3.562 -2.502,2.981 -3.252,2.394 -3.633,1.584 -3.633,0.573 c 0,-0.995 0.373,-1.79 1.108,-2.368 0.729,-0.571 1.732,-0.861 2.985,-0.861 0.317,0 0.655,0.03 1.002,0.086 0.345,0.057 0.786,0.162 1.311,0.309 l 0.08,0.023 V 1.073 H 0 Z"
       clip-path="url(#clipPath28)"
       style="fill:#231916;fill-rule:evenodd;stroke-width:10.0269"
       id="path38" />
    <path
       transform="matrix(0.92962878,0,0,-0.92962878,141.13334,160.97505)"
       d="m 0,0 c -0.039,-0.091 -0.073,-0.196 -0.101,-0.315 -0.029,0.117 -0.061,0.221 -0.097,0.313 L -1.944,4.26 h -2.313 v -6.257 h 1.459 v 4.573 c -10e-4,0.013 -10e-4,0.029 -0.003,0.047 l 1.944,-4.62 H 0.538 L 2.53,2.677 C 2.53,2.644 2.529,2.611 2.529,2.578 V -1.997 H 4.088 V 4.26 H 1.807 Z"
       clip-path="url(#clipPath30)"
       style="fill:#231916;fill-rule:evenodd;stroke-width:10.0269"
       id="path39" />
    <path
       transform="matrix(0.92962878,0,0,-0.92962878,149.35829,156.89134)"
       d="m 0,0 c -1.067,0 -1.92,-0.293 -2.536,-0.867 -0.619,-0.577 -0.932,-1.382 -0.932,-2.392 0,-1.007 0.312,-1.811 0.928,-2.388 0.616,-0.574 1.469,-0.866 2.54,-0.866 1.073,0 1.93,0.292 2.546,0.866 0.618,0.577 0.932,1.381 0.932,2.388 0,1.004 -0.316,1.808 -0.937,2.388 C 1.921,-0.293 1.066,0 0,0 m -1.319,-1.689 c 0.335,0.385 0.766,0.572 1.319,0.572 0.554,0 0.988,-0.187 1.327,-0.574 0.336,-0.386 0.507,-0.907 0.507,-1.55 0,-0.648 -0.171,-1.172 -0.507,-1.561 C 0.988,-5.191 0.554,-5.38 0,-5.38 c -0.556,0 -0.988,0.188 -1.321,0.576 -0.335,0.387 -0.504,0.912 -0.504,1.563 0,0.646 0.17,1.168 0.506,1.552"
       clip-path="url(#clipPath32)"
       style="fill:#231916;fill-rule:evenodd;stroke-width:10.0269"
       id="path40" />
    <path
       transform="matrix(0.92962878,0,0,-0.92962878,153.17655,158.08326)"
       d="M 0,0 H 1.87 V -5.108 H 3.492 V 0 H 5.387 V 1.15 H 0 Z"
       clip-path="url(#clipPath34)"
       style="fill:#231916;fill-rule:evenodd;stroke-width:10.0269"
       id="path41" />
    <path
       transform="matrix(0.92962878,0,0,-0.92962878,161.98204,156.89134)"
       d="m 0,0 c -1.067,0 -1.921,-0.293 -2.536,-0.867 -0.618,-0.577 -0.932,-1.382 -0.932,-2.392 0,-1.007 0.312,-1.811 0.929,-2.388 0.615,-0.574 1.468,-0.866 2.539,-0.866 1.073,0 1.93,0.292 2.546,0.866 0.618,0.577 0.932,1.381 0.932,2.388 0,1.004 -0.316,1.808 -0.937,2.388 C 1.921,-0.293 1.067,0 0,0 m -1.319,-1.689 c 0.335,0.385 0.767,0.572 1.319,0.572 0.554,0 0.988,-0.187 1.327,-0.574 0.336,-0.386 0.507,-0.907 0.507,-1.55 0,-0.648 -0.171,-1.172 -0.507,-1.561 C 0.988,-5.191 0.554,-5.38 0,-5.38 c -0.555,0 -0.988,0.188 -1.321,0.576 -0.334,0.387 -0.503,0.912 -0.503,1.563 0,0.646 0.17,1.168 0.505,1.552"
       clip-path="url(#clipPath36)"
       style="fill:#231916;fill-rule:evenodd;stroke-width:10.0269"
       id="path42" />
    <path
       transform="matrix(0.92962878,0,0,-0.92962878,170.25185,160.09001)"
       d="m 0,0 c -0.06,0.055 -0.128,0.103 -0.205,0.146 0.337,0.101 0.611,0.254 0.816,0.457 0.277,0.274 0.418,0.624 0.418,1.04 0,0.558 -0.237,0.982 -0.704,1.261 -0.448,0.269 -1.123,0.405 -2.005,0.405 h -2.434 v -6.258 h 1.599 v 2.532 h 0.33 c 0.332,0 0.582,-0.047 0.746,-0.14 0.157,-0.09 0.289,-0.259 0.393,-0.499 l 0.829,-1.893 H 1.501 L 0.443,-0.693 C 0.283,-0.352 0.138,-0.125 0,0 m -2.515,2.248 h 0.504 c 0.505,0 0.875,-0.069 1.102,-0.203 0.211,-0.126 0.313,-0.319 0.313,-0.592 0,-0.255 -0.104,-0.446 -0.319,-0.584 -0.227,-0.147 -0.56,-0.22 -0.99,-0.22 h -0.61 z"
       clip-path="url(#clipPath38)"
       style="fill:#231916;fill-rule:evenodd;stroke-width:10.0269"
       id="path43" />
    <path
       transform="matrix(0.92962878,0,0,-0.92962878,123.14504,150.45676)"
       d="m 0,0 v 14.158 c 0,1.183 -0.917,2.149 -2.074,2.149 H -20.086 L -20.87,-2.97 h 2.616 c 0.781,0 1.402,0.632 1.402,1.431 l 0.648,15.478 H -3.965 V -1.018 l -4.176,6.969 3.745,6.334 h -3.989 l -1.726,-2.974 -1.806,2.974 h -3.964 l 3.667,-6.223 -4.368,-7.438 h 2.884 c 0.702,0 1.295,0.358 1.619,0.939 l 1.86,3.137 1.862,-3.137 c 0.321,-0.581 0.913,-0.939 1.591,-0.939 h 2.801 c 0.028,-0.908 0.756,-1.626 1.646,-1.626 h 3.641 v 2.398 H 0.593 C 0.27,-0.604 0,-0.33 0,0"
       clip-path="url(#clipPath40)"
       style="fill:#231916;fill-rule:evenodd;stroke-width:10.0269"
       id="path44" />
    <path
       transform="matrix(0.92962878,0,0,-0.92962878,100.15817,143.39789)"
       d="m 0,0 h -7.874 v 3.294 h -4.342 V 0 h -3.665 l 2.507,4.559 H 0 V 7.04 h -11.782 l 1.023,1.752 h -5.149 L -16.905,7.04 h -4.692 V 4.559 h 3.153 L -20.896,0 c -0.486,-0.915 -0.459,-2.451 1.105,-2.451 h 7.575 v -4.987 c 0,-0.378 -0.321,-0.702 -0.701,-0.702 h -1.023 v -2.455 h 4.665 c 0.808,0.137 1.401,0.811 1.401,1.62 v 6.524 H 0 Z"
       clip-path="url(#clipPath42)"
       style="fill:#231916;fill-rule:evenodd;stroke-width:10.0269"
       id="path45" />
    <path
       transform="matrix(0.92962878,0,0,-0.92962878,94.242315,146.92718)"
       d="m 0,0 2.021,-5.855 c 0.19,-0.535 0.73,-0.943 1.323,-0.943 H 6.711 L 4.341,0 Z"
       clip-path="url(#clipPath44)"
       style="fill:#231916;fill-rule:evenodd;stroke-width:10.0269"
       id="path46" />
    <path
       transform="matrix(0.92962878,0,0,-0.92962878,79.905291,153.24697)"
       d="M 0,0 H 3.372 C 3.963,0 4.477,0.408 4.666,0.944 L 7.091,6.798 H 2.751 Z"
       clip-path="url(#clipPath46)"
       style="fill:#231916;fill-rule:evenodd;stroke-width:10.0269"
       id="path47" />
    <path
       transform="matrix(0.92962878,0,0,-0.92962878,161.07959,135.22463)"
       d="m 0,0 h -5.151 l -1.08,-1.722 h -5.285 v -2.479 h 3.693 l -3.073,-4.748 c -0.648,-0.89 -0.512,-2.209 0.945,-2.209 h 8.169 v -2.781 h -9.734 v -2.479 h 9.734 v -2.969 h 4.34 v 2.969 H 10.7 v 2.479 H 2.558 v 2.781 H 10.7 V -8.68 H 2.558 v 2.644 h -4.34 V -8.68 h -3.964 l 2.993,4.479 H 10.7 v 2.479 H -1.135 Z"
       clip-path="url(#clipPath48)"
       style="fill:#231916;fill-rule:evenodd;stroke-width:10.0269"
       id="path48" />
    <path
       transform="matrix(0.92962878,0,0,-0.92962878,132.34369,139.73563)"
       d="M 0,0 -0.915,3.211 C -1.08,3.829 -1.618,4.288 -2.292,4.288 h -3.1 L -4.233,0 Z"
       clip-path="url(#clipPath50)"
       style="fill:#231916;fill-rule:evenodd;stroke-width:10.0269"
       id="path49" />
    <path
       transform="matrix(0.92962878,0,0,-0.92962878,127.20342,153.24697)"
       d="M 0,0 H 3.076 C 3.748,0 4.287,0.487 4.448,1.107 L 6.014,7.794 H 1.809 Z"
       clip-path="url(#clipPath52)"
       style="fill:#231916;fill-rule:evenodd;stroke-width:10.0269"
       id="path50" />
    <path
       transform="matrix(0.92962878,0,0,-0.92962878,-199.62323,737.49426)"
       d="m 372.9,642.34 h -13.776 v -2.102 H 372.9 Z"
       clip-path="url(#clipPath54)"
       style="fill:#231916;fill-rule:evenodd;stroke-width:10.0269"
       id="path51" />
    <path
       transform="matrix(0.92962878,0,0,-0.92962878,138.67931,135.22463)"
       d="M 0,0 H -4.205 L -6.06,-4.664 h 3.261 c 0.541,0 1.107,0.296 1.242,0.783 l 0.187,0.515 H 9.498 v 2.1 H -0.507 Z"
       clip-path="url(#clipPath56)"
       style="fill:#231916;fill-rule:evenodd;stroke-width:10.0269"
       id="path52" />
    <path
       transform="matrix(0.92962878,0,0,-0.92962878,146.42929,146.27621)"
       d="M 0,0 C 0.809,0.807 0.809,2.209 -0.648,2.209 H -13.237 V 0.107 h 7.71 l -5.229,-5.121 c -1.026,-1.028 -0.863,-2.452 0.537,-2.452 H 0.837 v 2.1 h -6.31 z"
       clip-path="url(#clipPath58)"
       style="fill:#231916;fill-rule:evenodd;stroke-width:10.0269"
       id="path53" />
    <path
       transform="matrix(0.92962878,0,0,-0.92962878,132.34369,144.74811)"
       d="M 0,0 -0.915,3.209 C -1.08,3.831 -1.618,4.287 -2.292,4.287 h -3.1 L -4.233,0 Z"
       clip-path="url(#clipPath60)"
       style="fill:#231916;fill-rule:evenodd;stroke-width:10.0269"
       id="path54" />
  </g>
</svg>
