<svg xmlns="http://www.w3.org/2000/svg" viewBox="0 0 47.32 47.42"><defs><style>.cls-1{fill:#ec6608;}.cls-2{fill:#1d1d1b;}.cls-3{fill:#fff;}</style></defs><g id="Layer_2" data-name="Layer 2"><g id="Layer_1-2" data-name="Layer 1"><path class="cls-1" d="M46.65,23.71a23,23,0,1,1-23-23,23,23,0,0,1,23,23"/><path class="cls-2" d="M39.33,39.62l-2-6.46H24.88L25,46c-.43,0-.88,0-1.33,0s-.84,0-1.25,0l.17-12.88H10l-2,6.4a22.53,22.53,0,0,1-4.51-6.44H8.53l.57-1.34H38l.58,1.34H43.9a22.4,22.4,0,0,1-4.57,6.5M20,1.65,13.19,23h9.53L23,1.36l.65,0c.32,0,.63,0,.95,0L24.8,23h9.37L27.56,1.69A22.38,22.38,0,0,1,46,23.71v.59H1.35c0-.2,0-.39,0-.59A22.4,22.4,0,0,1,20,1.65M23.66,0A23.71,23.71,0,1,0,47.32,23.71,23.72,23.72,0,0,0,23.66,0"/><polygon class="cls-3" points="15.38 27.99 17.36 26.16 17.88 26.16 17.88 25.16 15.44 25.16 15.44 26.16 15.89 26.16 14.27 27.69 14.27 26.16 14.88 26.16 14.88 25.16 12.47 25.16 12.47 26.16 13.09 26.16 13.09 29.97 12.47 29.97 12.47 30.97 14.88 30.97 14.88 29.97 14.27 29.97 14.27 28.34 15.98 29.97 15.48 29.97 15.48 30.97 18 30.97 18 29.97 17.47 29.97 15.38 27.99"/><path class="cls-3" d="M22.14,28.87h2.09a1.7,1.7,0,0,1-1.62,1,1.87,1.87,0,0,1,0-3.73,1.77,1.77,0,0,1,1.46.73v0h1.25V25.16h-1v.48A2.66,2.66,0,0,0,22.6,25a3.07,3.07,0,0,0-2.18.94,3,3,0,0,0,2.19,5.13,2.42,2.42,0,0,0,1.95-.9V31h1V27.86H22.14Z"/><polygon class="cls-3" points="35.14 26.16 35.14 25.16 32.91 25.16 31.38 29.12 29.86 25.19 29.85 25.16 27.62 25.16 27.62 26.16 28.25 26.16 28.25 29.97 27.62 29.97 27.62 30.97 30.09 30.97 30.09 29.97 29.43 29.97 29.43 26.92 30.98 30.94 30.99 30.97 31.82 30.97 33.33 26.92 33.33 29.97 32.71 29.97 32.71 30.97 35.14 30.97 35.14 29.97 34.51 29.97 34.51 26.16 35.14 26.16"/></g></g></svg>