<svg height="24" viewBox="0 0 142 24" width="142" xmlns="http://www.w3.org/2000/svg" xmlns:xlink="http://www.w3.org/1999/xlink"><clipPath id="a"><path d="m2.59496751.02759621c.13358708-.07808162.29941932.01873959.29941932.17490283v7.46304137c0 .07183509.0383871.13898528.09980645.17490283l1.73049016 1.01662271c.06141935.03591754.09980644.10306774.09980644.17490283v4.06336762c0 .1561632-.16736772.254546-.29941932.1764644l-4.32545767-2.5407759c-.1228387-.0718351-.19961289-.2061355-.19961289-.3513673v-8.59366328c0-.14523181.07677419-.2795322.19961289-.35136729z"/></clipPath><clipPath id="b"><path d="m9.16530239 0v18h-9.16530239v-18z"/></clipPath><clipPath id="c"><path d="m1.24834827.05387632c.1228387-.07183509.27485159-.07183509.39922577 0l7.31811547 4.29761244c.1228387.07183509.19961288.20613548.19961288.35136729v8.59366325c0 .1452318-.07677418.2795322-.19961288.3513673l-4.32545767 2.5407759c-.1320516.0780817-.29941933-.0203012-.29941933-.1764644v-4.0633676c0-.0718351.03838709-.1389853.09980644-.1749028l1.73049017-1.0166227c.06141935-.0359176.09980644-.1030678.09980644-.1749029v-4.2976124c0-.07183509-.03838709-.13898529-.09980644-.17646446l-2.97883844-1.74746669c-.1320516-.07808162-.29788385.01873959-.29788385.17490283v12.67733202l-1.24681279.7324056c-.12437418.0733968-.27638707.0733968-.39922577 0l-1.24834827-.7324056v-16.42681147z"/></clipPath><clipPath id="d"><path d="m10.5658171 0v9.34480844h-10.5658171v-9.34480844z"/></clipPath><clipPath id="e"><path d="m8.60024438 0c1.07483861 0 1.91628372.87919906 1.95620632 2.04261521l.0092129 2.45332455c.0076774.53407829-.1888645 1.03536229-.5527742 1.40859244-.36237415.37479179-.85219346.58092727-1.37732889.58092727l1.85486439 2.68288451c.0506709.07339672-.0015355.17646446-.0921291.17646446h-2.06369011c-.10287741 0-.1980774-.05153387-.25642578-.13586202l-1.89325144-2.72348695h-4.43447702v2.74847307c0 .06090366-.04913548.1108759-.10901934.1108759h-1.53241276c-.05988387 0-.10901935-.04997224-.10901935-.1108759v-4.42410467c0-.05153387.04299354-.09525957.09519999-.09525957h8.46972826c.07216774 0 .13819354-.02810939.18732902-.07964326s.07370322-.1202457.07216773-.19208079v-2.42521516c-.02610322-.15303997-.13665805-.24673792-.26563868-.24673792h-8.44976697c-.05988387 0-.10901935-.04997224-.10901935-.1108759v-1.54757773c0-.0624653.04913548-.11243754.10901935-.11243754z"/></clipPath><clipPath id="f"><path d="m6.03584064.00039041.27677094.00273285c1.52934179.02342449 3.08325133.14054692 4.09052862.85265131.8460516.59654359 1.2652386 1.52727651 1.3619741 3.01863548.1489419 2.27842171-.1980774 3.65421988-1.1239741 4.46314547-1.03338053.90262355-2.83450295 1.02755414-4.63101892 1.02755414-.19654191 0-.39769028-.00156163-.60190962-.0046849-1.5293418-.02186285-3.08325133-.14054691-4.09359963-.85889783-.81073541-.57624237-1.18385795-1.45387979-1.28519988-3.02644364-.14279999-2.19565519.23185804-3.60268601 1.1792515-4.42722793 1.0011354-.86982926 2.54583203-1.04785536 4.55731572-1.04785536.17811611 0 .35930319 0 .54663221.00312326zm-.08617903 1.68324455-.18828869-.0001952c-.80612896 0-1.47713535.04060244-1.99612885.12024569-.61265801.09525958-1.09172894.28265547-1.42339342.55906441-.33780642.28109384-.55584511.67306358-.64797414 1.16341616-.08752257.47161299-.10901934 1.07752637-.06141935 1.80056219.03070968.47629789.13358709.86982926.30709675 1.16653942.17504515.30139506.42993545.54344808.75852896.71991255.32245159.17177956.73242574.29202526 1.21610312.35605219.47446447.0624653 1.05027087.09994448 1.71206436.10931427.13051612.00156163.25796127.00156163.38233545.00156163.80612896 0 1.48020632-.03904081 2.00227078-.11868406.61726447-.09682121 1.09787087-.2842171 1.43107084-.56062604.33934191-.28109384.5573806-.67306358.64797418-1.16341616.0875225-.47005136.1090193-1.07596474.0614193-1.80056219-.0291742-.46380483-.1305161-.8526513-.29788384-1.15716963-.17043869-.30607995-.42686447-.55125624-.76159993-.72772071-.32705803-.1733412-.74010316-.29358689-1.22992247-.35761382-.4806064-.0624653-1.05948377-.09994448-1.71820629-.10931427-.13051612-.00156163-.25949675-.00156163-.38233545-.00156163z"/></clipPath><clipPath id="g"><path d="m6.03619907.00039041.27542739.00273285c1.5293418.02186286 3.08478682.14054692 4.09206414.85265131.8445161.59654359 1.2652386 1.52727651 1.3619741 3.02019711.1474064 2.27686008-.1980774 3.65265825-1.1239741 4.46158384-1.03184508.90262355-2.83603847 1.02755414-4.63101895 1.02755414-.19654192 0-.39769029-.00156163-.60344511-.0046849-1.52780631-.02186285-3.08171584-.14054691-4.09206414-.85889783-.81227089-.57624237-1.18385796-1.45387979-1.28519988-3.02644364-.14433547-2.19721683.23032256-3.60268601 1.17771602-4.42722793 1.00113539-.8713909 2.54736751-1.04785536 4.5588512-1.04785536.17811611 0 .35930319 0 .54509672.00312326zm-.08368386 1.7191621-.18752096-.00019521c-.80766444 0-1.48020631.03904081-1.99766433.11868407-.61265801.09369794-1.09326442.2795322-1.4249289.55281787-.33780642.27797058-.5573806.66525542-.64797414 1.14936147-.08905805.46536646-.10901934 1.06347168-.06295483 1.77869933.03224516.47005136.13512257.85889784.30709675 1.15248474.17504514.29827179.43147092.53720155.76159993.71054275.3209161.17021793.72935477.288902 1.21610311.35292893.47446447.06090366 1.05027087.09682121 1.71206436.10775263.13051612.00156164.25796127.00156164.38233545.00156164.80766444 0 1.4817418-.04060245 2.00380627-.11868407.61879994-.09369794 1.09940635-.2795322 1.43260632-.55281788.33934191-.27797057.55738056-.66525541.64797416-1.14936146.089058-.46536646.1090193-1.06347168.0629548-1.77869934-.0307097-.4575583-.1305161-.84328151-.29941932-1.14311493-.17043869-.30139506-.42686447-.54500972-.76159993-.71991255-.32705803-.17021793-.74010316-.288902-1.23145795-.3513673-.48060641-.06246529-1.05948378-.09838284-1.71974178-.10931427-.13051612-.00156163-.25796127-.00156163-.38079997-.00156163z"/></clipPath><clipPath id="h"><path d="m1.65678695 0c.02917419 0 .05681289.01093143.07677418.03279428.02149678.02030122.03224516.04841061.03224516.07808162l-.01689032 7.46616463h7.92770251c.0660258 0 .10748386.07183509.07677418.13117713l-.78923864 1.48042754c-.05374193.09994447-.15661934.16084814-.26870965.16084814h-8.58642502c-.0291742 0-.0568129-.01093143-.07677419-.03123265-.02149677-.02186286-.03224516-.04997224-.03224516-.07964326l.02149677-9.12617989c0-.0624653.05067097-.11243754.11055483-.11243754z"/></clipPath><clipPath id="i"><path d="m6.13563279 0 .0476.00156163c.61572897.02030122 1.19460634.34355914 1.54930308.86826763l.06909677.1155608 4.54042536 8.25478901c.0414581.07495835-.0122838.16709467-.0952.16709467h-1.8748256c-.1120903 0-.2149677-.0624653-.2687096-.16397141l-3.73429648-6.97268878c-.03838709-.07183509-.11055483-.11712243-.19039998-.11712243-.07984516 0-.15354838.04528734-.19039999.11712243l-3.68516095 6.97268878c-.05220645.10150611-.15661934.16397141-.26870965.16397141h-1.92396112c-.08445161 0-.13665805-.09213632-.09673548-.16553304l4.63716087-8.48903387c.32859352-.4669281.8875096-.75270683 1.48481277-.75270683z"/></clipPath><clipPath id="j"><path d="m8.57567664 0c1.06409023 0 1.89632236.88076069 1.93624496 2.04730011v2.74691144c.006142.53563992-.1904 1.03692393-.55584509 1.41327735-.36237416.37479178-.85372895.58092726-1.38039987.58092726h-6.82829615v2.44395475c0 .06558856-.05374193.12024569-.11976773.12024569h-1.510916c-.06449031 0-.11669676-.05465713-.11669676-.12024569v-4.10709329c0-.06090366.0476-.1108759.10748386-.1108759h8.39756053c.07216773 0 .13972902-.02810938.18732901-.07964325.04913548-.0530955.07523871-.12180733.07216774-.19364242l.00460645-2.71880206c-.02456774-.15303998-.13665805-.24829955-.26563869-.24829955h-8.39602504c-.05988386 0-.10748386-.04997224-.10748386-.11087591v-1.55226263c0-.06090366.0476-.1108759.10748386-.1108759z"/></clipPath><clipPath id="k"><path d="m11.6143989 0c.0660258 0 .1074839.07183509.0767742.12961549l-.7892386 1.48042754c-.0537419.09994448-.1566193.16240977-.2687097.16240977h-4.17498023l-.01689032 7.45367158c0 .06090366-.04913548.10931427-.10901934.10931427h-1.52627083c-.02917419 0-.0568129-.01093143-.07677419-.03279429-.02149677-.02030122-.03378064-.0484106-.03378064-.07808162l.01842581-7.45210994h-4.60491571c-.05988387 0-.10901935-.04997223-.10901935-.11243753v-1.54913937c0-.06246529.04913548-.1108759.10901935-.1108759z"/></clipPath><clipPath id="l"><path d="m1.76887726 0 8.11196055.00156163c.0660258 0 .10901935.07027346.07677419.12961549l-.78923864 1.48042754c-.05374193.09994448-.15661934.16240978-.26870965.16240978h-7.1353929l-.00460645 2.07697112h7.81100574c.0660258 0 .10748386.07027346.07677418.12961549l-.79077412 1.48042755c-.05220644.09994447-.15508385.16240977-.26717417.16240977h-6.83443808l-.00460646 1.95360216h8.14267023c.0660258 0 .10748382.07183509.07677419.13117713l-.78923864 1.4788659c-.05374193.10150611-.15661934.16397141-.26870965.16397141h-8.80139275c-.03070968 0-.0568129-.01249306-.07830967-.03279428-.01996129-.02186286-.03224516-.04997224-.03224516-.07964326l.02456774-9.12930316c.00153548-.05934203.04913548-.10931427.11055483-.10931427z"/></clipPath><clipPath id="m"><path d="m3.46866053.00075981.13633936.00235773c.43761286.02810938.81687734.31544975 1.00881281.71522765l2.52587074 5.28924903c.03531612.07339672.10748386.11868406.18886449.11868406.08138064 0 .15354838-.04528734.1888645-.11868406l2.53661917-5.30955025c.2011483-.42007912.5957676-.66837868 1.0502708-.66837868.4529677 0 .9827096.27640894 1.1423999.89169212l2.1911353 8.30476124c.0184258.07027346-.0337806.13898529-.1059484.13898529h-1.4203224c-.139729 0-.2610323-.09369795-.2963484-.2311216l-1.4955611-5.78897141c-.0230323-.09525957-.1059484-.16084814-.2026839-.16084814-.0813806 0-.1535484.04684898-.1888645.1202457l-2.51205137 5.2736327c-.16276127.33575098-.46985802.54188646-.83223218.56218768-.37005158.02030122-.80766444-.28109384-.9719612-.61996808l-2.50744494-5.25020821c-.03531612-.07339673-.10748386-.1202457-.1888645-.1202457-.09519999 0-.17658062.06402693-.20268385.15616324l-1.65218049 5.82332732c-.03685161.13273876-.15661934.22487507-.2932774.22487507h-1.45870954c-.07216774 0-.12437418-.07183509-.10441289-.14210855l2.3400772-8.3172543c.16122579-.5731191.66179349-.93229456 1.26063215-.89169212z"/></clipPath><g clip-path="url(#a)" transform="translate(0 5.916862)"><path d="m0 0h4.82448988v13.2991674h-4.82448988z"/></g><g clip-path="url(#b)" transform="translate(6.269687 3)"><g clip-path="url(#c)"><path d="m0 0h9.16530239v18h-9.16530239z"/></g></g><g clip-path="url(#d)" transform="translate(131.434183 7.345555)"><g clip-path="url(#e)"><path d="m0 0h10.5658171v9.34480844h-10.5658171z"/></g></g><g clip-path="url(#f)" transform="translate(90.538025 7.344461)"><path d="m0 0h11.7983853v9.36510966h-11.7983853z"/></g><g clip-path="url(#g)" transform="translate(116.805455 7.344149)"><path d="m0 0h11.7984408v9.36510966h-11.7984408z"/></g><g clip-path="url(#h)" transform="translate(21.609477 7.341026)"><path d="m0 0h9.76370848v9.34949334h-9.76370848z"/></g><g clip-path="url(#i)" transform="translate(46.389427 7.290117)"><path d="m0 0h12.3563718v9.40727374h-12.3563718z"/></g><g clip-path="url(#j)" transform="translate(61.187184 7.359453)"><path d="m0 0h10.5120613v9.3526166h-10.5120613z"/></g><g clip-path="url(#k)" transform="translate(103.9696 7.361015)"><path d="m0 0h11.7014889v9.33543865h-11.7014889z"/></g><g clip-path="url(#l)" transform="translate(34.336487 7.340557)"><path d="m0 0h9.98021168v9.35105497h-9.98021168z"/></g><g clip-path="url(#m)" transform="translate(73.849406 7.343842)"><path d="m0 0h14.4415638v9.36510394h-14.4415638z"/></g></svg>