<?xml version="1.0" encoding="UTF-8" standalone="no"?>
<svg
   version="1.1"
   viewBox="0 0 2489.7839 601.43581"
   id="svg5"
   sodipodi:docname="Mazda_New_2024.svg"
   width="2489.7839"
   height="601.43585"
   inkscape:version="1.4 (86a8ad7, 2024-10-11)"
   xml:space="preserve"
   xmlns:inkscape="http://www.inkscape.org/namespaces/inkscape"
   xmlns:sodipodi="http://sodipodi.sourceforge.net/DTD/sodipodi-0.dtd"
   xmlns="http://www.w3.org/2000/svg"
   xmlns:svg="http://www.w3.org/2000/svg"><sodipodi:namedview
     id="namedview5"
     pagecolor="#ffffff"
     bordercolor="#000000"
     borderopacity="0.25"
     inkscape:showpageshadow="2"
     inkscape:pageopacity="0.0"
     inkscape:pagecheckerboard="0"
     inkscape:deskcolor="#d1d1d1"
     inkscape:zoom="0.32854256"
     inkscape:cx="1244.892"
     inkscape:cy="299.80895"
     inkscape:window-width="1366"
     inkscape:window-height="705"
     inkscape:window-x="-8"
     inkscape:window-y="-8"
     inkscape:window-maximized="1"
     inkscape:current-layer="svg5" /><defs
     id="defs1"><style
       id="style1">
      .cls-1 {
        fill: #1d1d1b;
      }
    </style></defs><!-- Generator: Adobe Illustrator 28.6.0, SVG Export Plug-In . SVG Version: 1.2.0 Build 709)  --><g
     id="katman_1"
     style="fill:#000000;stroke-width:0.3014"
     transform="matrix(3.3178457,0,0,3.3178457,-146.07857,-683.84612)"><g
       id="g4"
       style="fill:#000000;stroke-width:0.3014"><polygon
         class="cls-1"
         points="414.38,248.12 402.75,248.12 370.98,311.05 339.94,248.12 328.16,248.12 318.22,335.89 328.73,335.89 335.2,270.07 366.03,330.77 371.52,330.77 403.12,269.83 410.21,335.89 424.58,335.89 "
         id="polygon1"
         style="fill:#000000;stroke-width:0.3014" /><path
         class="cls-1"
         d="m 471.7,249.51 -39.45,86.38 h 11.39 l 14.49,-32.85 h 31.1 l 13.86,32.85 h 15.47 l -37.76,-87.95 -9.09,1.57 z m 13.95,44.19 H 462 l 11.99,-27.54 z"
         id="path1"
         style="fill:#000000;stroke-width:0.3014" /><path
         class="cls-1"
         d="m 602.55,324.33 c -4.99,0.98 -10.82,1.58 -17.32,1.79 -6.34,0.2 -20.24,0.3 -41.34,0.31 l 54.49,-74.04 v -4.26 h -66.85 l -3.57,9.47 h 50 l -53.95,73.04 -0.28,0.38 v 4.89 h 75.96 l 6.29,-11.59 h -3.14 l -0.27,0.03 z"
         id="path2"
         style="fill:#000000;stroke-width:0.3014" /><path
         class="cls-1"
         d="m 688.64,259.16 c -8.18,-7.33 -20,-11.04 -35.11,-11.04 h -33.27 v 87.78 h 30.27 c 15.09,0 27.4,-3.85 36.57,-11.44 9.25,-7.66 13.94,-18.53 13.94,-32.32 0,-14.51 -4.17,-25.6 -12.4,-32.97 z m -54.29,-1.58 h 15.31 c 12.47,0 21.77,2.77 27.63,8.23 5.83,5.44 8.79,14.29 8.79,26.31 0,23.08 -12.24,34.29 -37.42,34.29 h -14.31 v -68.84 z"
         id="path3"
         style="fill:#000000;stroke-width:0.3014" /><path
         class="cls-1"
         d="m 756.68,247.95 -9.09,1.57 -39.45,86.38 h 11.39 l 14.49,-32.85 h 31.1 l 13.86,32.85 h 15.47 l -37.76,-87.95 z m 4.85,45.75 h -23.65 l 11.99,-27.54 z"
         id="path4"
         style="fill:#000000;stroke-width:0.3014" /></g><path
       id="path2-9"
       style="fill:#000000;fill-opacity:1;stroke-width:16.018"
       d="M 111.14271,0 C 43.568542,0 0,38.704928 0,90.635694 0,142.56645 43.568542,181.273 111.14271,181.273 178.71688,181.273 222.2854,142.56645 222.2854,90.635694 222.2854,38.704928 178.71688,0 111.14271,0 Z m 0,9.6229525 c 31.26873,0 53.18173,8.8989195 68.97843,23.2669845 4.46874,4.064603 8.24882,8.291997 11.41259,12.721899 L 146.88257,67.76069 c -4.06883,2.018312 -11.52149,6.144551 -14.00869,8.631756 -2.16868,2.168677 -5.15842,5.906572 -8.21407,10.326594 L 111.14271,106.27179 97.625583,86.71904 C 94.569933,82.299018 91.580222,78.561123 89.411545,76.392446 86.92434,73.905241 79.471712,69.779027 75.40282,67.76069 L 30.75168,45.611836 C 33.915447,41.181934 37.695546,36.95454 42.164278,32.889937 57.960943,18.521872 79.873983,9.6229525 111.14271,9.6229525 Z M 20.641953,66.750204 69.327032,89.090226 c 9.2672,4.252432 15.54611,7.187921 18.587234,9.74023 3.502532,2.939554 6.636581,7.523504 14.206324,17.902894 l 7.79957,10.69449 h 2.44511 l 7.79957,-10.69449 c 7.56971,-10.37936 10.83712,-15.07525 14.20628,-17.902896 3.04114,-2.552309 9.32005,-5.487799 18.58726,-9.740228 l 48.68508,-22.340022 c 2.06031,7.357041 3.02024,15.269491 3.02024,23.88549 0,23.527506 -7.07277,41.855866 -24.54256,57.745746 -15.7967,14.36809 -37.7097,23.26699 -68.97842,23.26699 -31.268732,0 -53.181774,-8.8989 -68.978442,-23.26699 C 24.694485,132.49156 17.62173,114.1632 17.62173,90.635694 c 0,-8.615997 0.959934,-16.528449 3.020223,-23.88549 z"
       sodipodi:nodetypes="ssssssscssscssscsscsssccssscsssssc"
       transform="translate(44.02814,206.11149)" /></g></svg>
