<svg xmlns:xlink="http://www.w3.org/1999/xlink" xmlns="http://www.w3.org/2000/svg" class="svg-icon" width="135"  height="18" ><defs><symbol id="logo" viewBox="0 0 135 18"><g fill="none">
<path d="M128.071 0.627917L128.016 0.51123H124.097L130.279 17.2558V17.3725H134.253L128.071 0.627917Z" fill="currentColor"></path>
<path d="M117.528 0.569574L112.726 17.3725H116.369L120.123 4.94532H124.594L122.993 0.51123L117.528 0.569574Z" fill="currentColor"></path>
<path d="M4.42913 8.56261L4.37393 8.50427V5.29538L6.25064 3.19502H17.6765L23.1962 8.97102V3.31171L20.4363 0.569574L3.38038 0.51123L0.841309 3.31171V6.98734L4.42913 10.9547V8.56261Z" fill="currentColor"></path>
<path d="M19.6636 12.6467H19.6084V12.7633L17.6213 14.6303H6.19544L0.841309 8.44594V14.572L3.60117 17.3725H20.4363L23.2514 14.5136V10.488L19.6636 6.87067V12.6467Z" fill="currentColor"></path>
<path d="M61.3927 8.56261L61.3375 8.50427V5.29538L63.2142 3.19502H74.5849L80.1046 8.97102V3.31171L77.3999 0.569574L60.344 0.51123L57.7497 3.31171V6.98734L61.3927 10.9547V8.56261Z" fill="currentColor"></path>
<path d="M76.6272 12.6467H76.572V12.7633L74.5849 14.6303H63.159L57.7497 8.44594V14.572L60.5096 17.3725H77.3999L80.1598 14.5136V10.488L76.6272 6.87067V12.6467Z" fill="currentColor"></path>
<path d="M43.1224 0.51123L40.9697 12.1799L41.8529 17.3141L43.3432 17.3725L45.4959 4.94532H48.2005V17.4891H51.7884V3.37005L49.3045 0.51123H43.1224Z" fill="currentColor"></path>
<path d="M31.3654 0.569568L28.9367 3.48674V17.4308H29.1575C29.4887 17.4308 31.255 17.4308 32.4141 17.4308H32.5797V5.00366H35.2844L37.2715 17.4891H40.9145L37.9338 0.569568H31.3654Z" fill="currentColor"></path>
<path d="M101.521 0.51123L105.219 3.54508V12.705L102.57 14.6303H90.2057V3.31171H103.177L99.81 0.51123H86.4523V17.3725H106.213L108.862 14.572V3.31171L105.495 0.51123H101.521Z" fill="currentColor"></path>
</g></symbol></defs>
						<use xmlns:xlink="http://www.w3.org/1999/xlink" xlink:href="#logo"></use>
					</svg>